<?xml version="1.0" encoding="UTF-8"?>
<svg id="Capa_1" data-name="Capa 1" xmlns="http://www.w3.org/2000/svg" xmlns:xlink="http://www.w3.org/1999/xlink" viewBox="0 0 130.37 170.65">
  <defs>
    <style>
      .cls-1 {
        fill: none;
        stroke: url(#Degradado_sin_nombre);
        stroke-dasharray: 0 0 4.42 8.85;
        strokeLinecap: round;
        stroke-miterlimit: 10;
        stroke-width: 3px;
      }
    </style>
    <linearGradient id="Degradado_sin_nombre" data-name="Degradado sin nombre" x1="102.74" y1="92.59" x2="2.65" y2="54.83" gradientTransform="translate(0 171.69) scale(1 -1)" gradientUnits="userSpaceOnUse">
      <stop offset=".18" stopColor="#46e1fc"/>
      <stop offset=".62" stopColor="#e14696"/>
    </linearGradient>
  </defs>
  <path class="cls-1" d="m103.61,167.6L12.03,126.75c-9.01-4.02-13.01-14.56-8.92-23.55L44.23,12.79c4.22-9.29,15.61-14.1,24.76-9.56,4.12,2.05,7.13,5.54,8.66,9.56,1.58,4.28,1.56,9.18-.47,13.65l-26.73,58.79c-4.08,8.99-.09,19.53,8.92,23.55l58.31,26.01c7.86,3.51,12.69,11.98,10.77,20.35-1.44,6.25-5.85,10.81-11.16,12.83-4.27,1.61-9.14,1.64-13.66-.39h-.01Z"/>
</svg>