<svg width="31" height="18" viewBox="0 0 31 18" fill="none" xmlns="http://www.w3.org/2000/svg">
<path d="M1.25143 5.12038L13.2359 17.113C14.4151 18.2936 16.331 18.2957 17.5142 17.1191L29.4175 5.27227C30.6413 4.05518 30.7225 1.97743 29.452 0.806928C28.8797 0.280403 28.1429 0.0130902 27.4123 0.0110651C26.637 0.0171404 25.8597 0.310779 25.2711 0.896032L17.5304 8.59747C16.3472 9.77405 14.4313 9.77203 13.2521 8.5914L5.62105 0.956785C4.59207 -0.0719638 2.95625 -0.329151 1.74055 0.470762C0.833342 1.06817 0.372635 2.03414 0.370605 2.98998C0.370605 3.75749 0.658802 4.52703 1.25143 5.11836V5.12038Z" fill="url(#paint0_linear_580_8182)"/>
<defs>
<linearGradient id="paint0_linear_580_8182" x1="15.3705" y1="-0.000213416" x2="15.3705" y2="18.0029" gradientUnits="userSpaceOnUse">
<stop stop-color="#46DFFC"/>
<stop offset="0.125" stop-color="#6EB6E1"/>
<stop offset="0.59" stop-color="#D5509D"/>
<stop offset="1" stop-color="#E14696"/>
</linearGradient>
</defs>
</svg>
