<svg width="19" height="30" viewBox="0 0 19 30" fill="none" xmlns="http://www.w3.org/2000/svg">
<path d="M5.49099 29.1192L17.4836 17.1347C18.6642 15.9555 18.6663 14.0396 17.4897 12.8564L5.64287 0.953121C4.42579 -0.270696 2.34804 -0.351877 1.17753 0.918619C0.651008 1.49095 0.383696 2.22768 0.381671 2.95831C0.387746 3.7336 0.681385 4.51092 1.26664 5.09949L8.96808 12.8402C10.1447 14.0234 10.1426 15.9393 8.962 17.1185L1.32739 24.7496C0.298642 25.7785 0.0414544 27.4144 0.841367 28.6301C1.43877 29.5373 2.40474 29.998 3.36059 30C4.1281 30 4.89764 29.7118 5.48896 29.1192H5.49099Z" fill="white"/>
</svg>
