<svg width="41" height="41" viewBox="0 0 41 41" fill="none" xmlns="http://www.w3.org/2000/svg">
<path d="M31.5517 13.9511L31.5518 13.9512L31.5563 13.9456C31.9012 13.5228 32.0658 12.9812 32.0147 12.438C31.9635 11.8947 31.7006 11.3935 31.2828 11.0425C30.865 10.6916 30.3258 10.5191 29.7819 10.5625C29.238 10.6058 28.733 10.8614 28.376 11.2741L28.376 11.2741L28.3714 11.2796L16.659 25.2199L12.5837 20.6919C12.4041 20.4841 12.185 20.3139 11.9391 20.1912C11.6915 20.0676 11.4216 19.9948 11.1453 19.9771C10.8691 19.9593 10.5921 19.9969 10.3306 20.0877L10.4947 20.5601L10.3306 20.0878C10.0691 20.1786 9.82845 20.3207 9.62269 20.5059L9.95716 20.8775L9.62269 20.5059C9.41694 20.691 9.25027 20.9155 9.13249 21.166C9.01471 21.4165 8.94818 21.688 8.93683 21.9645C8.92548 22.2411 8.96953 22.5172 9.06638 22.7765C9.16252 23.0338 9.30875 23.2696 9.4966 23.47L15.1698 29.7736C15.3645 29.99 15.6025 30.1631 15.8684 30.2816L16.072 29.8249L15.8684 30.2816C16.1343 30.4001 16.4221 30.4614 16.7132 30.4615H16.7134H16.74V30.4616L16.748 30.4615C17.0455 30.4568 17.3386 30.3881 17.6074 30.2602C17.8761 30.1324 18.1143 29.9482 18.3057 29.7203L31.5517 13.9511ZM0.5 20.5C0.5 9.47256 9.47256 0.5 20.5 0.5C31.5274 0.5 40.5 9.47256 40.5 20.5C40.5 31.5274 31.5274 40.5 20.5 40.5C9.47256 40.5 0.5 31.5274 0.5 20.5Z" stroke="url(#paint0_linear_610_7538)"/>
<defs>
<linearGradient id="paint0_linear_610_7538" x1="-0.000486113" y1="20.5001" x2="41.0066" y2="20.5001" gradientUnits="userSpaceOnUse">
<stop offset="0.18" stopColor="#46DFFC"/>
<stop offset="0.31" stopColor="#6EB6E1"/>
<stop offset="0.59" stopColor="#D5509D"/>
<stop offset="0.62" stopColor="#E14696"/>
</linearGradient>
</defs>
</svg>
