<svg width="84" height="84" viewBox="0 0 84 84" fill="none" xmlns="http://www.w3.org/2000/svg">
<path d="M1 77.6852V76.9259V76.1667V75.4074L1.75926 73.8889L33.6481 42L2.51852 10.8704L1.75926 10.1111V9.35185L1 8.59259V7.83333V7.07407V6.31481V4.7963L1.75926 4.03704L2.51852 3.27778L3.27778 2.51852L4.03704 1.75926L5.55556 1H7.07407H8.59259L10.1111 1.75926L42 33.6481L73.1296 2.51852L73.8889 1.75926L75.4074 1H76.9259H78.4444L79.963 1.75926L80.7222 2.51852L81.4815 3.27778L82.2407 4.03704L83 5.55556V7.07407V8.59259L82.2407 10.1111L50.3519 42L80.7222 72.3704L82.2407 73.8889L83 75.4074V76.9259V78.4444L82.2407 79.963L81.4815 80.7222L80.7222 81.4815L79.963 82.2407L78.4444 83H76.9259H75.4074L73.8889 82.2407L42 50.3519L10.1111 82.2407L8.59259 83H7.07407H5.55556L4.03704 82.2407L3.27778 81.4815L2.51852 80.7222L1.75926 79.963L1 78.4444" stroke="url(#paint0_linear_936_7577)" stroke-width="2" stroke-dasharray="4 4"/>
<defs>
<linearGradient id="paint0_linear_936_7577" x1="0.999028" y1="42.0002" x2="83.0131" y2="42.0002" gradientUnits="userSpaceOnUse">
<stop stop-color="#46DFFC"/>
<stop offset="0.125" stop-color="#6EB6E1"/>
<stop offset="0.59" stop-color="#D5509D"/>
<stop offset="1" stop-color="#E14696"/>
</linearGradient>
</defs>
</svg>
