<svg width="122" height="123" viewBox="0 0 122 123" fill="none" xmlns="http://www.w3.org/2000/svg">
<circle cx="61" cy="61.416" r="60.208" fill="#111111" stroke="url(#paint0_linear_1851_14370)"/>
<path d="M33.9377 34.3535H39.9131L41.1082 40.3289M41.1082 40.3289H87.716L75.7653 64.2303H45.8885M41.1082 40.3289L45.8885 64.2303M45.8885 64.2303L39.038 71.0808C37.1559 72.963 38.4889 76.181 41.1506 76.181H75.7653M75.7653 76.181C72.4651 76.181 69.7899 78.8562 69.7899 82.1564C69.7899 85.4566 72.4651 88.1317 75.7653 88.1317C79.0654 88.1317 81.7406 85.4566 81.7406 82.1564C81.7406 78.8562 79.0654 76.181 75.7653 76.181ZM51.8638 82.1564C51.8638 85.4566 49.1886 88.1317 45.8885 88.1317C42.5884 88.1317 39.9131 85.4566 39.9131 82.1564C39.9131 78.8562 42.5884 76.181 45.8885 76.181C49.1886 76.181 51.8638 78.8562 51.8638 82.1564Z" stroke="white" stroke-width="1.5" stroke-linecap="round" stroke-linejoin="round"/>
<defs>
<linearGradient id="paint0_linear_1851_14370" x1="0.290553" y1="61.4163" x2="121.727" y2="61.4163" gradientUnits="userSpaceOnUse">
<stop offset="0.18" stop-color="#46DFFC"/>
<stop offset="0.31" stop-color="#6EB6E1"/>
<stop offset="0.59" stop-color="#D5509D"/>
<stop offset="0.62" stop-color="#E14696"/>
</linearGradient>
</defs>
</svg>
