<?xml version="1.0" encoding="UTF-8"?>
<svg id="Capa_1" data-name="Capa 1" xmlns="http://www.w3.org/2000/svg" xmlns:xlink="http://www.w3.org/1999/xlink" viewBox="0 0 3844.87 1890.7">
  <defs>
    <style>
      .cls-1 {
        fill: url(#Degradado_sin_nombre);
      }
    </style>
    <linearGradient id="Degradado_sin_nombre" data-name="Degradado sin nombre" x1="146.68" y1="936.53" x2="3009.43" y2="2028.71" gradientTransform="translate(0 1890.83) scale(1 -1)" gradientUnits="userSpaceOnUse">
      <stop offset=".11" stop-color="#46e1fc"/>
      <stop offset=".21" stop-color="#72b5df" stop-opacity=".29"/>
      <stop offset=".43" stop-color="#a186c0" stop-opacity="0"/>
      <stop offset=".59" stop-color="#c661a8" stop-opacity=".44"/>
      <stop offset=".7" stop-color="#e14696"/>
    </linearGradient>
  </defs>
  <path class="cls-1" d="m.95,1845.91C1450.56,1456.09,3835.43,122.15,3842.33,118.3l.8,1.99c-6.91,3.85-2391.97,1337.89-3841.78,1727.77l-.41-2.16h0Zm.96-43.71C1427.91,1441.01,3837.07,42.72,3844.05,38.68l.82,1.98c-6.97,4.04-2416.36,1402.45-3842.58,1763.69l-.38-2.16Zm.99-44.68c453.75-105.85,1016.42-331.62,1569.94-588.58C2510.87,733.48,3422.62,208.45,3733.51,25.66l.83,1.98c-310.91,182.81-1222.72,707.87-2160.83,1143.36C1019.9,1428,457.12,1653.81,3.25,1759.68l-.35-2.16Zm1.02-46.17c431.99-89.83,971.24-303.61,1507.91-554.7C2366.34,756.84,3214.3,262.4,3612.29,23.02l.85,1.97c-398.01,239.38-1246.02,733.84-2100.63,1133.7C975.73,1409.84,436.35,1623.67,4.23,1713.52l-.31-2.17h0Zm1.07-48.25c411.85-72.65,929.65-274.03,1450.57-518.94C2251.55,769.91,3054.84,294.04,3498.56,20.56l.86,1.95c-443.75,273.49-1247.08,749.4-2043.18,1123.68C935.19,1391.18,417.26,1592.62,5.25,1665.28l-.26-2.18Zm1.15-51.4c393.22-53.97,891.36-242.28,1397.58-480.49C2153.76,778.26,2921.53,315.78,3392.28,18.26l.88,1.94c-470.8,297.54-1238.65,760.08-1988.75,1113.05C898.04,1371.53,399.76,1559.89,6.34,1613.9l-.2-2.2h0Zm1.24-55.18c376.02-33.5,856.04-207.79,1348.48-438.64C2067.95,784.06,2806,331.94,3293.17,16.11l.9,1.93c-487.21,315.85-1225.33,768.01-1937.52,1101.89C863.95,1350.86,383.74,1525.2,7.5,1558.72l-.13-2.2Zm1.34-59.66c360.2-11.08,823.62-170.25,1303.23-392.99C1991.78,788.15,2704.13,344.69,3201.28,14.11l.92,1.92c-497.2,330.61-1209.64,774.12-1889.57,1089.89-479.79,222.82-943.42,382.05-1303.87,393.14l-.04-2.21Zm1.47-65.09c345.79,13.58,793.97-129.12,1261.59-342.82C1923.71,791.02,2613.42,355.11,3116.22,12.27l.94,1.91c-502.86,342.88-1192.65,778.84-1844.71,1076.82-467.83,213.81-916.26,356.56-1262.33,342.97l.07-2.2Zm1.63-71.55c332.85,40.69,767.16-84.01,1223.64-287.59C1862.98,792.77,2532.39,363.85,3037.84,10.58l.96,1.9c-505.51,353.32-1175.03,782.3-1802.69,1062.22-456.73,203.69-891.33,328.45-1224.5,287.72l.2-2.2h0Zm1.79-78.96c321.53,70.37,743.34-34.64,1189.53-226.89C1809.15,793.25,2460.13,371.21,2966,9.02l.97,1.88c-505.96,362.25-1157.04,784.36-1763.2,1045.54-446.48,192.37-868.62,297.43-1190.53,226.98l.36-2.17h0Zm1.98-87.23c312.01,102.64,722.71,19.13,1159.45-160.45C1761.97,792.23,2395.87,377.36,2900.44,7.61l.99,1.88c-504.65,369.82-1138.69,784.76-1725.79,1026.18-437.06,179.71-848.15,263.26-1160.58,160.48l.52-2.13h0Zm2.17-96.1c354.96,160.14,841.04,51.87,1348.19-178.72C1873.23,688.55,2401.58,335.53,2840.94,6.32l1,1.85c-439.44,329.28-967.89,682.37-1475.32,913.07-507.55,230.77-994.09,339.09-1349.55,178.73l.68-2.06h.02Zm2.39-105.79c299.34,174.4,692.23,139.42,1112.43-10.42C1687.32,783.88,2289.63,385.9,2787.22,5.15l1.02,1.85c-497.71,380.83-1100.18,778.92-1655.14,976.81-420.63,149.99-813.99,184.98-1113.81,10.29l.85-1.98h.02Zm2.56-114.75c296.7,213.03,683.01,204.79,1096.12,72.02C1659.92,775.49,2246.99,387.97,2739.04,4.11l1.04,1.84c-492.19,383.97-1079.44,771.6-1620.77,945.57-413.59,132.91-800.39,141.12-1097.6-72.27l.99-1.89h.02Zm2.73-122.65c296.83,252.44,678.16,272.09,1084.92,157.69C1639.18,763.64,2211,388.29,2696.13,3.18l1.04,1.83c-485.28,385.23-1057.31,760.7-1586.4,909.52-407.27,114.56-789.11,94.84-1086.45-158.03l1.11-1.79h.02Zm2.86-129.03c299.84,291.68,677.81,339.87,1078.92,244.85C1624.99,747.86,2181.37,386.59,2658.17,2.37l1.06,1.82c-476.97,384.37-1033.58,745.77-1551.67,868.5-401.64,95.14-780.14,46.85-1080.49-245.31l1.21-1.7h.02Zm2.94-133.6c348.76,376.16,789.23,423.15,1246.41,291.35C1734.97,651.56,2209.05,340.8,2624.86,1.65l1.06,1.82c-415.96,339.29-890.24,650.17-1347.85,782.09C820.3,917.52,379.25,870.44,29.94,493.69l1.28-1.63h.02Zm3.01-137.57c314.41,365.95,690.42,471.14,1082.32,417.11C1615.28,702.82,2139.77,376.25,2595.84,1.02l1.08,1.81c-456.29,375.41-981.07,702.14-1480.15,770.96-392.45,54.1-768.99-51.25-1083.86-417.73l1.33-1.57h.02Zm3.02-138.29c325.5,399.19,702.71,531.79,1090.96,498.78C1618.66,673.24,2126.81,367.28,2570.74.47l1.07,1.81c-444.15,367.01-952.61,673.13-1443.46,714.88-388.8,33.07-766.51-99.72-1092.46-499.44l1.37-1.54h.02Zm2.98-136.75c338.54,428.77,718.07,587.29,1103.21,575.12,482.91-15.26,974.72-298.86,1405.6-654.56l1.08,1.81c-431.15,355.91-923.3,639.68-1406.67,654.95C757.83,668.93,377.81,510.22,38.86,80.93l1.38-1.51h.02ZM0,1888.56C1472.42,1475.15,3833.77,201.6,3840.61,197.92l.77,2.01c-6.84,3.68-2368.35,1277.31-3840.95,1690.77l-.43-2.14h0Z"/>
</svg>