<svg width="15" height="14" viewBox="0 0 15 14" fill="none" xmlns="http://www.w3.org/2000/svg">
<path d="M0 7C0 10.8658 3.30908 14 7.39063 14C11.4722 14 14.7813 10.8658 14.7813 7C14.7813 3.13418 11.4722 0 7.39063 0C3.30908 0 0 3.13418 0 7ZM9.14483 7L6.136 4.14986C6.03388 4.04805 5.97779 3.9125 5.97969 3.77209C5.98159 3.63168 6.04132 3.49752 6.14616 3.39823C6.25099 3.29894 6.39263 3.24236 6.54087 3.24056C6.68912 3.23876 6.83224 3.29189 6.93973 3.38861L10.3508 6.61937C10.4573 6.72035 10.5172 6.85725 10.5172 7C10.5172 7.14275 10.4573 7.27965 10.3508 7.38062L6.93973 10.6114C6.83224 10.7081 6.68912 10.7612 6.54087 10.7594C6.39263 10.7576 6.25099 10.7011 6.14616 10.6018C6.04132 10.5025 5.98159 10.3683 5.97969 10.2279C5.97779 10.0875 6.03388 9.95195 6.136 9.85014L9.14483 7Z" fill="url(#paint0_linear_810_8690)"/>
<defs>
<linearGradient id="paint0_linear_810_8690" x1="7.39062" y1="0" x2="7.39063" y2="14" gradientUnits="userSpaceOnUse">
<stop stopColor="#52D3F4"/>
<stop offset="1" stopColor="#E04797"/>
</linearGradient>
</defs>
</svg>
