<svg xmlns="http://www.w3.org/2000/svg" xml:space="preserve" width="176.197" height="50.835" fill-rule="evenodd" viewBox="0 0 46.619 13.45"><defs><linearGradient id="a" x1="3.153" x2="84.112" y1="8.413" y2="55.164" gradientUnits="userSpaceOnUse"><stop offset=".08" stop-color="#51C9E4"/><stop offset=".6" stop-color="#CF6597"/></linearGradient></defs><g style="fill:none"><path fill="url(#a)" d="M77.322 20.9a4055.512 4055.512 0 0 1-3.855-12.343c-1.222-3.97-5.495-7.207-9.508-7.207-5.236 0-8.286 4.445-9.624 7.092-.964 1.812-1.812 3.337-2.618 4.804-1.165 2.1-2.258 4.086-3.553 6.632l-1.251 2.445a6809.423 6809.423 0 0 0-9.077 17.708c-.576 1.122-1.683 1.525-2.82 1.007-.733-.33-1.05-.92-1.036-1.985V28.006c-.028-3.841-.028-7.811-.115-11.724-.043-2.46-.748-4.848-2.1-7.092C28.672 4.01 24.084 1.192 18.128.803c-3.495-.23-6.718.59-9.58 2.432C3.283 6.629.593 11.477.535 17.663.492 24.71.492 31.875.492 38.794v10.962c0 .215.029.546.26.762.215.216.517.245.79.245h7.509c.446 0 1.05-.101 1.05-1.007V17.864c0-1.38.317-2.632.978-3.812 1.123-2.014 3.05-3.352 5.265-3.654 2.201-.302 4.402.475 6.013 2.115 1.223 1.237 2.014 3.352 2.014 5.365v23.333c0 .158-.057 3.898 2.661 6.675 1.87 1.913 4.575 2.877 8.07 2.877 2.978 0 7.884 0 10.717-5.38L62.362 14.08c.36-.69.734-.92 1.482-.92.661 0 1.05.359 1.323 1.179 1.74 5.538 3.496 11.076 5.236 16.6l2.072 6.574c1.309 4.143 2.618 8.3 3.927 12.443.172.561.518.82 1.122.806h9.12z" style="fill:url(#a)" transform="matrix(.26458 0 0 .26458 -.13 -.203)"/></g><path fill="#fff" d="M24.343 13.041 20.18.455l-.027-.103c0-.118.076-.18.228-.18h2.147c.152 0 .255.07.308.206l2.813 9.299c.015.034.042.049.076.049.034 0 .061-.015.076-.05L28.587.379c.05-.137.152-.205.308-.205L31.042.2c.187 0 .255.095.206.281l-4.141 12.556c-.05.137-.153.206-.309.206h-2.146c-.152 0-.255-.069-.309-.206zM32.12 13.052V.522c0-.17.083-.254.254-.254h1.941c.171 0 .255.087.255.255v12.53c0 .17-.084.254-.255.254h-1.94c-.172 0-.256-.084-.256-.255zM46.613 7.444c0 .171-.084.255-.255.255h-8.153c-.068 0-.102.034-.102.103 0 .578.05 1.024.152 1.328a2.735 2.735 0 0 0 1.138 1.599c.57.384 1.29.574 2.158.574 1.26 0 2.23-.517 2.911-1.56.084-.171.195-.194.332-.076l1.457.97c.118.103.145.214.076.332-.475.765-1.153 1.37-2.032 1.815-.88.442-1.869.666-2.976.666-1.245 0-2.292-.274-3.144-.818-.853-.544-1.492-1.32-1.918-2.326-.408-1.004-.613-2.222-.613-3.653 0-1.245.095-2.189.282-2.836.308-1.176.92-2.105 1.838-2.786.925-.681 2.04-1.024 3.353-1.024 1.72 0 3.007.43 3.86 1.29.852.86 1.37 2.124 1.56 3.795.068.7.095 1.48.076 2.352zM39.305 2.68c-.475.365-.799.856-.97 1.47-.118.376-.198.852-.229 1.43 0 .069.035.103.103.103h5.854c.068 0 .103-.034.103-.103-.035-.563-.084-.978-.153-1.252-.17-.666-.506-1.195-1.008-1.598-.503-.4-1.13-.602-1.88-.602s-1.336.183-1.816.548z"/></svg>