<svg width="86" height="23" viewBox="0 0 86 23" fill="none" xmlns="http://www.w3.org/2000/svg">
<path d="M33.2972 3.48444C32.7397 1.70695 30.8114 0.26302 28.9928 0.26302C26.6259 0.26302 25.2459 2.25527 24.6382 3.43417C24.1995 4.24752 23.8203 4.92836 23.4547 5.58179C22.9292 6.52308 22.4357 7.40954 21.8463 8.54732L21.2797 9.6394C19.9089 12.2759 18.538 14.917 17.1718 17.5536C16.9113 18.0562 16.4087 18.2344 15.8969 18.0059C15.5679 17.8597 15.4263 17.5947 15.4263 17.1149V16.7357C15.4263 15.7807 15.4309 14.8302 15.4263 13.8752V12.1754C15.4172 10.4573 15.408 8.6844 15.376 6.93889C15.3532 5.84224 15.0379 4.773 14.4256 3.77231C13.0228 1.45106 10.9437 0.18991 8.25236 0.0162731C6.67135 -0.0842534 5.21372 0.281298 3.91601 1.10379C1.53536 2.62082 0.315336 4.78671 0.297058 7.55119C0.269642 10.6995 0.274211 13.9026 0.274211 17.0007C0.274211 18.632 0.274211 20.2678 0.274211 21.8991C0.274211 21.9996 0.28792 22.1412 0.388446 22.2418C0.488973 22.3423 0.621485 22.3514 0.744858 22.3514C1.56278 22.3469 2.40355 22.3469 3.2306 22.3514H4.13991C4.34553 22.3514 4.61513 22.3057 4.61513 21.9036V13.1258C4.61513 11.2981 4.61513 9.47033 4.61513 7.64715C4.61513 7.03028 4.76135 6.47282 5.06293 5.94277C5.5747 5.03803 6.44288 4.44401 7.44358 4.3115C8.4397 4.17898 9.43583 4.52169 10.1669 5.25279C10.7198 5.80569 11.0808 6.74698 11.0808 7.64715C11.0854 10.8868 11.0808 14.8394 11.0808 18.0745C11.0808 18.143 11.0534 19.8154 12.2826 21.0583C13.1279 21.9128 14.3479 22.3469 15.9335 22.3469C17.2815 22.3469 19.5022 22.3469 20.7816 19.9434L28.2663 5.95191C28.4308 5.64576 28.5998 5.54066 28.938 5.54066C29.235 5.54066 29.4132 5.70059 29.532 6.07071C30.3225 8.54732 34.4349 20.1398 35.0244 21.9904C35.1066 22.2418 35.2574 22.356 35.5316 22.3514H39.6577C39.6577 22.3514 33.8683 5.32133 33.2926 3.47987L33.2972 3.48444Z" fill="url(#paint0_linear_1851_14346)"/>
<path d="M55.153 0.806287L48.7056 21.7569C48.596 22.1088 48.2715 22.3509 47.906 22.3509H44.5109C44.15 22.3509 43.8301 22.1225 43.7159 21.7798L36.6744 0.810857C36.6242 0.664636 36.7338 0.509277 36.8892 0.509277H40.956C41.0565 0.509277 41.1479 0.573249 41.1753 0.673775L45.9823 16.5661C46.0508 16.7854 46.3615 16.7809 46.4209 16.5615L50.7299 0.678345C50.7573 0.577818 50.8487 0.509277 50.9492 0.509277H54.9337C55.0891 0.509277 55.1987 0.660067 55.153 0.806287Z" fill="white"/>
<path d="M61.372 0.509277H57.6206C57.4944 0.509277 57.3921 0.611567 57.3921 0.737747V22.1179C57.3921 22.2441 57.4944 22.3464 57.6206 22.3464H61.372C61.4982 22.3464 61.6005 22.2441 61.6005 22.1179V0.737747C61.6005 0.611567 61.4982 0.509277 61.372 0.509277Z" fill="white"/>
<path d="M84.5291 5.22189C83.734 3.71399 82.5734 2.48025 81.0792 1.55724C79.585 0.629652 77.7892 0.163574 75.7513 0.163574C73.7133 0.163574 71.8399 0.629652 70.268 1.55267C68.687 2.47568 67.4441 3.7871 66.5623 5.44579C65.6849 7.0999 65.2417 9.0556 65.2417 11.2535C65.2417 13.4513 65.6941 15.4436 66.5851 17.084C67.4807 18.729 68.7236 20.0313 70.2863 20.9543C71.849 21.8773 73.6585 22.3479 75.669 22.3479C78.1639 22.3479 80.2476 21.69 81.856 20.3922C83.4598 19.0991 84.5611 17.4496 85.1322 15.4893C85.1871 15.2974 85.0454 15.1055 84.8444 15.1055H81.5133C81.3214 15.1055 81.1477 15.2151 81.0701 15.3888C80.8005 15.9645 80.1105 17.2714 79.1144 17.8562C78.1182 18.4411 77.0399 18.8021 75.669 18.8021C74.6135 18.8021 73.6082 18.5462 72.6761 18.0482C71.7439 17.5501 70.958 16.7961 70.3411 15.8092C69.7974 14.9455 69.4592 13.8626 69.3267 12.5877C69.313 12.4552 69.4181 12.3456 69.5506 12.3456H85.5298C85.6166 12.3456 85.6851 12.277 85.6851 12.1902V12.0485C85.6851 11.6556 85.6897 11.3174 85.7034 11.025C85.7171 10.7143 85.7263 10.399 85.7263 10.0974C85.7263 8.37019 85.3242 6.72978 84.5291 5.22645V5.22189ZM75.669 3.70942C77.3277 3.70942 78.7397 4.21662 79.8729 5.21275C80.8736 6.09921 81.4676 7.30552 81.6412 8.80428C81.6549 8.9368 81.5498 9.05103 81.4219 9.05103H69.6283C69.4912 9.05103 69.3861 8.92766 69.409 8.79514C69.674 7.23698 70.3548 6.01696 71.4378 5.16248C72.6624 4.19834 74.0926 3.70942 75.6736 3.70942H75.669Z" fill="white"/>
<defs>
<linearGradient id="paint0_linear_1851_14346" x1="0.274211" y1="11.1747" x2="39.6623" y2="11.1747" gradientUnits="userSpaceOnUse">
<stop offset="0.18" stop-color="#46E1FC"/>
<stop offset="0.62" stop-color="#E14696"/>
</linearGradient>
</defs>
</svg>
