<?xml version="1.0" encoding="UTF-8"?>
<svg id="Capa_1" data-name="Capa 1" xmlns="http://www.w3.org/2000/svg" viewBox="0 0 318.2 178">
  <defs>
    <style>
      .cls-1 {
        fill: #fff;
        stroke: #fff;
        stroke-miterlimit: 10;
      }
    </style>
  </defs>
  <path class="cls-1" d="m266.3,28.08c-4.46-14.06-20.01-25.49-34.64-25.49-19.06,0-30.16,15.75-35.06,25.12-3.53,6.44-6.58,11.83-9.51,17-4.21,7.45-8.2,14.47-12.96,23.47l-4.57,8.63c-11.03,20.88-22.07,41.77-33.07,62.66-2.1,3.99-6.14,5.39-10.28,3.58-2.67-1.16-3.81-3.26-3.79-7.04v-3.01c.02-7.55.03-15.1,0-22.66l-.05-13.46c-.03-13.59-.08-27.65-.36-41.47-.17-8.7-2.74-17.13-7.63-25.09C103.13,12.01,86.4,2.01,64.72.63c-12.72-.82-24.46,2.1-34.89,8.62C10.66,21.25.85,38.43.67,60.3c-.2,24.94-.17,50.29-.15,74.81,0,12.93.03,25.87,0,38.79,0,.78.1,1.91.91,2.71.81.78,1.88.88,2.88.88,6.58-.05,13.34-.03,20.03-.03h7.32c1.64,0,3.82-.37,3.82-3.54V61.04c0-4.87,1.17-9.3,3.59-13.51,4.11-7.15,11.1-11.86,19.15-12.93,8.03-1.06,16.02,1.66,21.9,7.47,4.47,4.39,7.34,11.84,7.34,18.96.05,25.67.03,56.94,0,82.56,0,.57-.22,13.77,9.67,23.61,6.8,6.77,16.64,10.2,29.38,10.2,10.84-.03,28.74,0,39.02-19.01l60.23-110.77c1.32-2.43,2.69-3.26,5.41-3.26,2.4,0,3.84,1.25,4.8,4.19,6.34,19.6,39.48,111.37,44.23,126.06.64,2,1.88,2.88,4.09,2.88h33.22s-46.61-134.83-51.25-149.4h.05Z"/>
</svg>