<svg width="22" height="12" viewBox="0 0 22 12" fill="none" xmlns="http://www.w3.org/2000/svg">
<path d="M21.5922 11.249L21.5828 11.2236L21.2288 10.2619C20.9345 9.46217 20.5389 8.38639 20.1337 7.2823C19.3242 5.07682 18.4738 2.75108 18.319 2.2944L18.288 2.20282C18.1471 1.86167 17.8726 1.54214 17.5223 1.30039C17.1414 1.03754 16.6904 0.880312 16.2645 0.880312C15.1462 0.880312 14.4756 1.7482 14.1601 2.31326L14.1576 2.3177L14.1576 2.31768C13.9225 2.71929 13.7201 3.05545 13.5263 3.37704C13.5084 3.40676 13.4905 3.43636 13.4727 3.46587C13.2131 3.89674 12.9644 4.30942 12.6718 4.82934L12.6717 4.82949L12.3692 5.36592C12.2681 5.54557 12.1669 5.72523 12.0657 5.90491C11.4362 7.02297 10.8063 8.14148 10.179 9.25999C10.0811 9.43466 9.93131 9.56233 9.7486 9.62185C9.56689 9.68103 9.37015 9.66726 9.18512 9.59138L21.5922 11.249ZM21.5922 11.249H19.7502C19.7353 11.249 19.7251 11.248 19.7185 11.247C19.7176 11.2448 19.7166 11.2421 19.7155 11.239L19.7154 11.2386C19.5678 10.8108 19.0152 9.35127 18.4256 7.794C18.3797 7.67271 18.3335 7.55083 18.2873 7.42879C17.6458 5.73396 16.9939 4.0086 16.7854 3.40422L16.7851 3.40337C16.7452 3.28888 16.685 3.17599 16.5839 3.09333C16.4775 3.00633 16.3536 2.97523 16.2309 2.97523C16.1188 2.97523 16.0023 2.99085 15.8936 3.05238C15.7841 3.11437 15.7117 3.20638 15.656 3.3025C15.656 3.30253 15.656 3.30256 15.656 3.30259L11.6662 10.1868L11.6659 10.1873C11.0634 11.2324 10.0275 11.2417 9.29727 11.2438C8.49374 11.2437 7.91152 11.0411 7.52212 10.6774L7.52193 10.6772C6.95706 10.1506 6.96036 9.43988 6.96057 9.3946C6.96057 9.39413 6.96057 9.39373 6.96057 9.39341L21.5922 11.249ZM8.77875 8.73554V8.73494C8.77987 8.26543 8.78099 7.79697 8.77875 7.32866L8.77875 7.32847L8.77539 6.4921L8.77539 6.49176C8.77315 5.64703 8.76978 4.77553 8.75191 3.91897L8.75191 3.91894C8.74177 3.42967 8.58812 2.95069 8.2875 2.49186C7.58628 1.42287 6.55257 0.839285 5.18981 0.757876L5.18971 0.75787C4.39411 0.710036 3.66618 0.880554 3.01977 1.25947C1.81863 1.96478 1.22311 2.95567 1.21163 4.21884L8.77875 8.73554ZM8.77875 8.73554V8.9221V8.73554ZM1.20155 8.86562L1.20156 8.8658C1.20156 9.13302 1.2018 9.40061 1.20205 9.66837C1.20254 10.1954 1.20303 10.7231 1.20163 11.25L1.20155 8.86562ZM1.20155 8.86562C1.20148 8.76741 1.20141 8.66899 1.20133 8.57039M1.20155 8.86562L1.20133 8.57039M1.20133 8.57039C1.20021 7.13865 1.19906 5.66743 1.21163 4.21893L1.20133 8.57039ZM2.26389 11.2478C2.3525 11.2479 2.44097 11.2479 2.52912 11.2479H3.01427C3.01536 11.2479 3.01643 11.2479 3.01749 11.2479V6.95838V6.95312V6.94786V6.94259V6.93733V6.93206V6.9268V6.92154V6.91627V6.91101V6.90574V6.90048V6.89521V6.88995V6.88469V6.87942V6.87416V6.86889V6.86363V6.85836V6.8531V6.84784V6.84257V6.83731V6.83204V6.82678V6.82151V6.81625V6.81098V6.80572V6.80045V6.79519V6.78992V6.78466V6.77939V6.77413V6.76886V6.7636V6.75833V6.75307V6.74781V6.74254V6.73728V6.73201V6.72675V6.72148V6.71622V6.71095V6.70569V6.70042V6.69515V6.68989V6.68462V6.67936V6.67409V6.66883V6.66356V6.6583V6.65303V6.64777V6.6425V6.63724V6.63197V6.62671V6.62144V6.61618V6.61091V6.60565V6.60038V6.59511V6.58985V6.58458V6.57932V6.57405V6.56879V6.56352V6.55826V6.55299V6.54772V6.54246V6.53719V6.53193V6.52666V6.5214V6.51613V6.51086V6.5056V6.50033V6.49507V6.4898V6.48454V6.47927V6.474V6.46874V6.46347V6.45821V6.45294V6.44767V6.44241V6.43714V6.43188V6.42661V6.42135V6.41608V6.41081V6.40555V6.40028V6.39501V6.38975V6.38448V6.37922V6.37395V6.36868V6.36342V6.35815V6.35289V6.34762V6.34235V6.33709V6.33182V6.32656V6.32129V6.31602V6.31076V6.30549V6.30022V6.29496V6.28969V6.28442V6.27916V6.27389V6.26863V6.26336V6.25809V6.25283V6.24756V6.24229V6.23703V6.23176V6.22649V6.22123V6.21596V6.2107V6.20543V6.20016V6.1949V6.18963V6.18436V6.1791V6.17383V6.16856V6.1633V6.15803V6.15276V6.1475V6.14223V6.13696V6.1317V6.12643V6.12116V6.1159V6.11063V6.10536V6.1001V6.09483V6.08956V6.0843V6.07903V6.07376V6.0685V6.06323V6.05796V6.0527V6.04743V6.04216V6.0369V6.03163V6.02636V6.0211V6.01583V6.01056V6.0053V6.00003V5.99476V5.98949V5.98423V5.97896V5.97369V5.96843V5.96316V5.95789V5.95263V5.94736V5.94209V5.93683V5.93156V5.92629V5.92103V5.91576V5.91049V5.90522V5.89996V5.89469V5.88942V5.88416V5.87889V5.87362V5.86836V5.86309V5.85782V5.85256V5.84729V5.84202V5.83675V5.83149V5.82622V5.82095V5.81569V5.81042V5.80515V5.79989V5.79462V5.78935V5.78408V5.77882V5.77355V5.76828V5.76302V5.75775V5.75248V5.74721V5.74195V5.73668V5.73141V5.72615V5.72088V5.71561V5.71035V5.70508V5.69981V5.69454V5.68928V5.68401V5.67874V5.67348V5.66821V5.66294V5.65767V5.65241V5.64714V5.64187V5.63661V5.63134V5.62607V5.62081V5.61554V5.61027V5.605V5.59974V5.59447V5.5892V5.58394V5.57867V5.5734V5.56813V5.56287V5.5576V5.55233V5.54707V5.5418V5.53653V5.53126V5.526V5.52073V5.51546V5.5102V5.50493V5.49966V5.4944V5.48913V5.48386V5.47859V5.47333V5.46806V5.46279V5.45753V5.45226V5.44699V5.44172V5.43646V5.43119V5.42592V5.42066V5.41539V5.41012V5.40486V5.39959V5.39432V5.38905V5.38379V5.37852V5.37325V5.36799V5.36272V5.35745V5.35219V5.34692V5.34165V5.33638V5.33112V5.32585V5.32058V5.31532V5.31005V5.30478V5.29952V5.29425V5.28898V5.28372V5.27845V5.27318V5.26791V5.26265V5.25738V5.25211V5.24685V5.24158V5.23631V5.23105V5.22578V5.22051V5.21525V5.20998V5.20471V5.19945V5.19418V5.18891V5.18365V5.17838V5.17311V5.16785V5.16258V5.15731V5.15204V5.14678V5.14151V5.13624V5.13098V5.12571V5.12044V5.11518V5.10991V5.10464V5.09938V5.09411V5.08884V5.08358V5.07831V5.07304V5.06778V5.06251V5.05725V5.05198V5.04671V5.04145V5.03618V5.03091V5.02565V5.02038V5.01511V5.00985V5.00458V4.99931V4.99405V4.98878V4.98351V4.97825V4.97298V4.96771V4.96245V4.95718V4.95192V4.94665V4.94138V4.93612V4.93085V4.92558V4.92032V4.91505V4.90979V4.90452V4.89925V4.89399V4.88872V4.88345V4.87819V4.87292V4.86766V4.86239V4.85712V4.85186V4.84659V4.84132V4.83606V4.83079V4.82553V4.82026V4.81499V4.80973V4.80446V4.7992V4.79393V4.78866V4.7834V4.77813V4.77287V4.7676V4.76234V4.75707V4.7518V4.74654V4.74127V4.73601V4.73074V4.72547V4.72021V4.71494V4.70968V4.70441V4.69915V4.69388V4.68861V4.68335V4.67808V4.67282V4.66755V4.66229V4.65702V4.65175V4.64649V4.64122V4.63596V4.63069V4.62543V4.62016V4.6149V4.60963V4.60437V4.5991V4.59383V4.58857V4.5833V4.57804V4.57277V4.56751V4.56224V4.55698V4.55171V4.54645V4.54118V4.53592V4.53065V4.52539V4.52012V4.51486V4.50959V4.50433V4.49906V4.4938V4.48853V4.48327V4.478V4.47274V4.46747V4.46221V4.45694V4.45168V4.44641V4.44115V4.43588V4.43062V4.42535V4.42009V4.41482V4.40956V4.40429V4.39903V4.39376V4.3885V4.38324V4.37797V4.37271V4.36744V4.36218V4.35691V4.35165V4.34638V4.34112V4.33586V4.33059V4.32533V4.32006V4.3148V4.30953V4.30427V4.29901V4.29374V4.28848V4.28321V4.27795V4.27268V4.26742V4.26216C3.01749 3.91298 3.10763 3.59282 3.29183 3.29212C3.60536 2.78019 4.13664 2.44649 4.7425 2.37131C5.34722 2.29613 5.94965 2.48882 6.3941 2.9001C6.74665 3.22557 6.9605 3.75795 6.96057 4.26189M2.26389 11.2478L6.96057 9.39305C6.96281 7.80101 6.96393 5.85736 6.96057 4.26189M2.26389 11.2478C1.90877 11.2477 1.55124 11.2475 1.20175 11.25L2.26389 11.2478ZM6.96057 4.26189C6.96057 4.26198 6.96057 4.26207 6.96057 4.26216H6.71057M6.96057 4.26189C6.96057 4.26181 6.96057 4.26172 6.96057 4.26163L6.71057 4.26216M6.71057 4.26216C6.71057 3.81968 6.5201 3.35652 6.22431 3.08359M6.71057 4.26216L6.22431 3.08359M6.22431 3.08359C5.8344 2.72278 5.30555 2.55324 4.77335 2.6194C4.24002 2.68557 3.77728 2.97814 3.50502 3.42269C3.3448 3.68425 3.26749 3.95924 3.26749 4.26216V6.95838V11.2777C3.26749 11.4752 3.12295 11.4979 3.01427 11.4979H2.52912C2.44069 11.4979 2.35203 11.4979 2.26329 11.4979L6.22431 3.08359Z" fill="#F3F5F7" stroke="white" stroke-width="0.5"/>
</svg>
