<svg width="32" height="23" viewBox="0 0 32 23" fill="none" xmlns="http://www.w3.org/2000/svg">
<path d="M17.5391 20.5789V7.26316C17.5391 5.33685 18.3037 3.48944 19.6648 2.12733C21.0258 0.765223 22.8718 2.18463e-07 24.7966 2.18463e-07C25.1173 2.18463e-07 25.425 0.127538 25.6518 0.354556C25.8787 0.581573 26.0061 0.889476 26.0061 1.21053C26.0061 1.53158 25.8787 1.83948 25.6518 2.0665C25.425 2.29352 25.1173 2.42105 24.7966 2.42105C23.5146 2.42504 22.2863 2.93647 21.3798 3.84368C20.4733 4.75089 19.9622 5.98018 19.9582 7.26316V8.47369H29.0301C29.6717 8.47369 30.287 8.72876 30.7407 9.1828C31.1943 9.63683 31.4492 10.2526 31.4492 10.8947V20.5789C31.4492 21.2211 31.1943 21.8369 30.7407 22.2909C30.287 22.7449 29.6717 23 29.0301 23H19.9582C19.3166 23 18.7013 22.7449 18.2476 22.2909C17.794 21.8369 17.5391 21.2211 17.5391 20.5789ZM2.41939 23H11.4912C12.1328 23 12.7481 22.7449 13.2018 22.2909C13.6555 21.8369 13.9104 21.2211 13.9104 20.5789V10.8947C13.9104 10.2526 13.6555 9.63683 13.2018 9.1828C12.7481 8.72876 12.1328 8.47369 11.4912 8.47369H2.41939V7.26316C2.42338 5.98018 2.93441 4.75089 3.8409 3.84368C4.7474 2.93647 5.97573 2.42504 7.2577 2.42105C7.5785 2.42105 7.88616 2.29352 8.113 2.0665C8.33984 1.83948 8.46727 1.53158 8.46727 1.21053C8.46727 0.889476 8.33984 0.581573 8.113 0.354556C7.88616 0.127538 7.5785 2.18463e-07 7.2577 2.18463e-07C5.3329 2.18463e-07 3.48694 0.765223 2.1259 2.12733C0.764864 3.48944 0.000240088 5.33685 0.000240088 7.26316V20.5789C0.000240088 21.2211 0.255116 21.8369 0.708795 22.2909C1.16247 22.7449 1.7778 23 2.41939 23Z" fill="url(#paint0_linear_779_7541)"/>
<defs>
<linearGradient id="paint0_linear_779_7541" x1="31.4496" y1="11.4999" x2="-0.0047938" y2="11.4999" gradientUnits="userSpaceOnUse">
<stop stop-color="#46DFFC"/>
<stop offset="0.125" stop-color="#6EB6E1"/>
<stop offset="0.59" stop-color="#D5509D"/>
<stop offset="1" stop-color="#E14696"/>
</linearGradient>
</defs>
</svg>
