<svg width="27" height="20" viewBox="0 0 27 20" fill="none" xmlns="http://www.w3.org/2000/svg">
<path d="M11.6523 2.71387V13.7139C11.6523 15.3052 11.0202 16.8313 9.89498 17.9565C8.76977 19.0817 7.24364 19.7139 5.65234 19.7139C5.38713 19.7139 5.13277 19.6085 4.94524 19.421C4.7577 19.2334 4.65234 18.9791 4.65234 18.7139C4.65234 18.4487 4.7577 18.1943 4.94524 18.0068C5.13277 17.8192 5.38713 17.7139 5.65234 17.7139C6.7122 17.7106 7.7277 17.2881 8.47713 16.5387C9.22656 15.7892 9.64905 14.7737 9.65234 13.7139V12.7139H2.15234C1.62191 12.7139 1.1132 12.5032 0.73813 12.1281C0.363057 11.753 0.152344 11.2443 0.152344 10.7139V2.71387C0.152344 2.18343 0.363057 1.67473 0.73813 1.29965C1.1132 0.924581 1.62191 0.713867 2.15234 0.713867H9.65234C10.1828 0.713867 10.6915 0.924581 11.0666 1.29965C11.4416 1.67473 11.6523 2.18343 11.6523 2.71387ZM24.1523 0.713867H16.6523C16.1219 0.713867 15.6132 0.924581 15.2381 1.29965C14.8631 1.67473 14.6523 2.18343 14.6523 2.71387V10.7139C14.6523 11.2443 14.8631 11.753 15.2381 12.1281C15.6132 12.5032 16.1219 12.7139 16.6523 12.7139H24.1523V13.7139C24.149 14.7737 23.7266 15.7892 22.9771 16.5387C22.2277 17.2881 21.2122 17.7106 20.1523 17.7139C19.8871 17.7139 19.6328 17.8192 19.4452 18.0068C19.2577 18.1943 19.1523 18.4487 19.1523 18.7139C19.1523 18.9791 19.2577 19.2334 19.4452 19.421C19.6328 19.6085 19.8871 19.7139 20.1523 19.7139C21.7436 19.7139 23.2698 19.0817 24.395 17.9565C25.5202 16.8313 26.1523 15.3052 26.1523 13.7139V2.71387C26.1523 2.18343 25.9416 1.67473 25.5666 1.29965C25.1915 0.924581 24.6828 0.713867 24.1523 0.713867Z" fill="white" fill-opacity="0.15"/>
</svg>
